//  ***** gm - Orchestra *****
//  Soundfont converted using sfZed
//  SoundFont version 2.1
//  E-mu 10K1
//  Using Virtual Sampler


<group>
ampeg_release=0.250

<region>
sample=808MC64.wav
lokey=82
hikey=82
pitch_keycenter=82
volume=-3.900

<region>
sample=AGOGO60.wav
lokey=67
hikey=67
pitch_keycenter=69
volume=-11.100

<region>
sample=AGOGO60.wav
lokey=68
hikey=68
pitch_keycenter=75
volume=-11.100

<region>
sample=APPLS64A.wav
lokey=88
hikey=88
loop_mode=loop_continuous
loop_start=32
loop_end=7262
tune=44
pitch_keycenter=98

<region>
sample=BELTR60.wav
lokey=84
hikey=84
loop_mode=loop_continuous
loop_start=2901
loop_end=3546
pitch_keycenter=90

<region>
sample=CABA_60.wav
lokey=69
hikey=69
pitch_keycenter=69
volume=-7.800

<region>
sample=CAST_60.wav
lokey=39
hikey=39
pitch_keycenter=39
volume=-6.500

<region>
sample=CAST_60.wav
lokey=85
hikey=85
pitch_keycenter=85

<region>
sample=CHH__60A.wav
lokey=27
hikey=27
pitch_keycenter=27
volume=-16

<region>
sample=CHH__60A.wav
lokey=28
hikey=28
tune=-30
pitch_keycenter=27
volume=-13.700

<region>
sample=CLAVE60.wav
lokey=75
hikey=75
pitch_keycenter=82
volume=-6.500

<region>
sample=CLICK60.wav
lokey=32
hikey=32
pitch_keycenter=32
volume=-1

<region>
sample=COWBL66.wav
lokey=56
hikey=56
tune=45
pitch_keycenter=62
volume=-3.900

<region>
sample=CRASH60B.wav
lokey=55
hikey=55
loop_mode=loop_continuous
loop_start=2615
loop_end=8290
tune=-12
pitch_keycenter=45
volume=-15.500

<region>
sample=CRASH60B.wav
lokey=57
hikey=57
loop_mode=loop_continuous
loop_start=2615
loop_end=8290
tune=-12
pitch_keycenter=61

<region>
sample=CRASH60B.wav
lokey=59
hikey=59
loop_mode=loop_continuous
loop_start=2615
loop_end=8290
tune=-12
pitch_keycenter=58

<region>
sample=HBNGO60.wav
lokey=60
hikey=60
tune=80
pitch_keycenter=62
volume=-2.600

<region>
sample=JBELL60.wav
lokey=83
hikey=83
pitch_keycenter=85
volume=-2.800

<region>
sample=KICK264.wav
lokey=35
hikey=35
tune=-50
pitch_keycenter=36

<region>
sample=LBNGO60.wav
lokey=61
hikey=61
tune=-30
pitch_keycenter=61
volume=-2.600

<region>
sample=LGUIR60.wav
lokey=74
hikey=74
pitch_keycenter=79
volume=-1.800

<region>
sample=LWHSL60A.wav
lokey=72
hikey=72
pitch_keycenter=72
volume=-19.100

<region>
sample=MARCS60.wav
lokey=70
hikey=70
pitch_keycenter=70
volume=-8.500

<region>
sample=MCNGA60.wav
lokey=62
hikey=62
tune=-20
pitch_keycenter=64
volume=-23.300

<region>
sample=MCUIC60.wav
lokey=78
hikey=78
tune=45
pitch_keycenter=88
volume=-19.100

<region>
sample=METRO60.wav
lokey=34
hikey=34
loop_mode=loop_continuous
loop_start=750
loop_end=878
tune=2
pitch_keycenter=34
volume=-2.600

<region>
sample=OCNGA60.wav
lokey=63
hikey=63
pitch_keycenter=65
volume=-7.800

<region>
sample=OCNGA60.wav
lokey=64
hikey=64
pitch_keycenter=71
volume=-1.600

<region>
sample=OCUIC60.wav
lokey=79
hikey=79
pitch_keycenter=89
volume=-17.100

<region>
sample=OHH__60B.wav
lokey=29
hikey=29
loop_mode=loop_continuous
loop_start=5808
loop_end=9568
tune=5
pitch_keycenter=28
volume=-12.900

<region>
sample=RDCYM60B.wav
lokey=30
hikey=30
loop_mode=loop_continuous
loop_start=4913
loop_end=9025
tune=2
pitch_keycenter=29
volume=-16.300

<region>
sample=SGUIR60.wav
lokey=73
hikey=73
tune=20
pitch_keycenter=73
volume=-5.200

<region>
sample=SIDE_60.wav
lokey=33
hikey=33
tune=20
pitch_keycenter=31
volume=-10.300

<region>
sample=SIDE_60.wav
lokey=37
hikey=37
pitch_keycenter=37
volume=-5.200

<region>
sample=STICK64.wav
lokey=31
hikey=31
pitch_keycenter=36
volume=-1.800

<region>
sample=STRNG52B.wav
hikey=55
loop_mode=loop_continuous
loop_start=251
loop_end=9960
tune=-7
pitch_keycenter=57
volume=-17

<region>
sample=STRNG71B.wav
lokey=56
hikey=83
loop_mode=loop_continuous
loop_start=147
loop_end=11418
tune=-7
pitch_keycenter=71
volume=-17

<region>
sample=STRNG88B.wav
lokey=84
loop_mode=loop_continuous
loop_start=136
loop_end=7546
tune=8
pitch_keycenter=88
volume=-20.700

<region>
sample=SURDO60.wav
lokey=86
hikey=86
loop_mode=loop_continuous
loop_start=3574
loop_end=4890
tune=-1
pitch_keycenter=98
volume=-3.900

<region>
sample=SURDO60.wav
lokey=87
hikey=87
loop_mode=loop_continuous
loop_start=3574
loop_end=4890
tune=-1
pitch_keycenter=99

<region>
sample=SWHSL60A.wav
lokey=71
hikey=71
pitch_keycenter=71
volume=-19.900

<region>
sample=T_SNR60A.wav
lokey=38
hikey=38
pitch_keycenter=35
volume=-3.900

<region>
sample=T_SNR60A.wav
lokey=40
hikey=40
pitch_keycenter=37
volume=-3.900

<region>
sample=TAMBO60.wav
lokey=54
hikey=54
pitch_keycenter=54
volume=-6.500

<region>
sample=TIMBL60.wav
lokey=65
hikey=65
pitch_keycenter=70
volume=-11.100

<region>
sample=TIMBL60.wav
lokey=66
hikey=66
pitch_keycenter=76
volume=-11.100

<region>
sample=TMPNI47.wav
lokey=36
hikey=36
tune=-44
volume=-5.200

<region>
sample=TMPNI47.wav
lokey=41
hikey=41
tune=-44
pitch_keycenter=55
volume=-7.800

<region>
sample=TMPNI47.wav
lokey=42
hikey=42
tune=-44
pitch_keycenter=55
volume=-7.800

<region>
sample=TMPNI47.wav
lokey=43
hikey=43
tune=-44
pitch_keycenter=55
volume=-7.800

<region>
sample=TMPNI47.wav
lokey=44
hikey=44
tune=-44
pitch_keycenter=55
volume=-7.800

<region>
sample=TMPNI47.wav
lokey=45
hikey=45
tune=-44
pitch_keycenter=55
volume=-7.800

<region>
sample=TMPNI47.wav
lokey=46
hikey=46
tune=-44
pitch_keycenter=55
volume=-7.800

<region>
sample=TMPNI47.wav
lokey=47
hikey=47
tune=-44
pitch_keycenter=55
volume=-7.800

<region>
sample=TMPNI47.wav
lokey=48
hikey=48
tune=-44
pitch_keycenter=55
volume=-7.800

<region>
sample=TMPNI47.wav
lokey=49
hikey=49
tune=-44
pitch_keycenter=55
volume=-7.800

<region>
sample=TMPNI47.wav
lokey=50
hikey=50
tune=-44
pitch_keycenter=55
volume=-7.800

<region>
sample=TMPNI47.wav
lokey=51
hikey=51
tune=-44
pitch_keycenter=55
volume=-7.800

<region>
sample=TMPNI47.wav
lokey=52
hikey=52
tune=-44
pitch_keycenter=55
volume=-7.800

<region>
sample=TMPNI47.wav
lokey=53
hikey=53
tune=-44
pitch_keycenter=55
volume=-7.800

<region>
sample=TRI__60.wav
lokey=80
hikey=80
loop_mode=loop_continuous
loop_start=833
loop_end=1793
pitch_keycenter=81
volume=-15.500

<region>
sample=TRI__60.wav
lokey=81
hikey=81
loop_mode=loop_continuous
loop_start=833
loop_end=1793
pitch_keycenter=82
volume=-12.900

<region>
sample=VBSLP64.wav
lokey=58
hikey=58
loop_mode=loop_continuous
loop_start=1643
loop_end=4047
pitch_keycenter=62
volume=-7.800

<region>
sample=WODBK60.wav
lokey=76
hikey=76
tune=45
pitch_keycenter=76
volume=-6.500

<region>
sample=WODBK60.wav
lokey=77
hikey=77
tune=45
pitch_keycenter=82
volume=-6.500
